<mxfile host="Electron" agent="Mozilla/5.0 (Windows NT 10.0; Win64; x64) AppleWebKit/537.36 (KHTML, like Gecko) draw.io/27.0.9 Chrome/134.0.6998.205 Electron/35.4.0 Safari/537.36" version="27.0.9">
  <diagram name="Page-1" id="ycW1583mX-DcTmEBC0mO">
    <mxGraphModel dx="1028" dy="611" grid="1" gridSize="10" guides="1" tooltips="1" connect="1" arrows="1" fold="1" page="1" pageScale="1" pageWidth="850" pageHeight="1100" math="0" shadow="0">
      <root>
        <mxCell id="0" />
        <mxCell id="1" parent="0" />
        <mxCell id="aAWxjAW3lnpBoPfi4oE7-23" style="edgeStyle=none;rounded=0;orthogonalLoop=1;jettySize=auto;html=1;entryX=0;entryY=0.5;entryDx=0;entryDy=0;endArrow=none;startFill=0;" parent="1" source="aAWxjAW3lnpBoPfi4oE7-1" target="aAWxjAW3lnpBoPfi4oE7-6" edge="1">
          <mxGeometry relative="1" as="geometry" />
        </mxCell>
        <mxCell id="aAWxjAW3lnpBoPfi4oE7-25" style="edgeStyle=none;rounded=0;orthogonalLoop=1;jettySize=auto;html=1;entryX=0;entryY=0.5;entryDx=0;entryDy=0;endArrow=none;startFill=0;" parent="1" source="aAWxjAW3lnpBoPfi4oE7-1" target="aAWxjAW3lnpBoPfi4oE7-8" edge="1">
          <mxGeometry relative="1" as="geometry" />
        </mxCell>
        <mxCell id="aAWxjAW3lnpBoPfi4oE7-26" style="edgeStyle=none;rounded=0;orthogonalLoop=1;jettySize=auto;html=1;entryX=0;entryY=0.5;entryDx=0;entryDy=0;endArrow=none;startFill=0;" parent="1" source="aAWxjAW3lnpBoPfi4oE7-1" target="aAWxjAW3lnpBoPfi4oE7-7" edge="1">
          <mxGeometry relative="1" as="geometry" />
        </mxCell>
        <mxCell id="aAWxjAW3lnpBoPfi4oE7-1" value="User" style="shape=umlActor;verticalLabelPosition=bottom;verticalAlign=top;html=1;" parent="1" vertex="1">
          <mxGeometry x="70" y="170" width="30" height="60" as="geometry" />
        </mxCell>
        <mxCell id="aAWxjAW3lnpBoPfi4oE7-5" value="Use Case Diagram for Sticky Notes Application" style="shape=umlFrame;whiteSpace=wrap;html=1;pointerEvents=0;recursiveResize=0;container=1;collapsible=0;width=340;height=30;" parent="1" vertex="1">
          <mxGeometry x="140" y="40" width="340" height="250" as="geometry" />
        </mxCell>
        <mxCell id="aAWxjAW3lnpBoPfi4oE7-6" value="Add Note" style="ellipse;html=1;whiteSpace=wrap;" parent="aAWxjAW3lnpBoPfi4oE7-5" vertex="1">
          <mxGeometry x="100" y="45" width="60" height="50" as="geometry" />
        </mxCell>
        <mxCell id="aAWxjAW3lnpBoPfi4oE7-7" value="View All Notes" style="ellipse;html=1;whiteSpace=wrap;" parent="aAWxjAW3lnpBoPfi4oE7-5" vertex="1">
          <mxGeometry x="100" y="105" width="60" height="50" as="geometry" />
        </mxCell>
        <mxCell id="aAWxjAW3lnpBoPfi4oE7-31" value="Include" style="edgeStyle=none;rounded=0;orthogonalLoop=1;jettySize=auto;html=1;entryX=0;entryY=0.5;entryDx=0;entryDy=0;endArrow=classic;startFill=0;dashed=1;endFill=1;" parent="aAWxjAW3lnpBoPfi4oE7-5" source="aAWxjAW3lnpBoPfi4oE7-8" target="aAWxjAW3lnpBoPfi4oE7-27" edge="1">
          <mxGeometry relative="1" as="geometry" />
        </mxCell>
        <mxCell id="aAWxjAW3lnpBoPfi4oE7-32" value="Include" style="edgeStyle=none;rounded=0;orthogonalLoop=1;jettySize=auto;html=1;entryX=0;entryY=0.5;entryDx=0;entryDy=0;endArrow=classic;startFill=0;dashed=1;endFill=1;" parent="aAWxjAW3lnpBoPfi4oE7-5" source="aAWxjAW3lnpBoPfi4oE7-8" target="aAWxjAW3lnpBoPfi4oE7-28" edge="1">
          <mxGeometry relative="1" as="geometry" />
        </mxCell>
        <mxCell id="aAWxjAW3lnpBoPfi4oE7-8" value="View Specific Note" style="ellipse;html=1;whiteSpace=wrap;" parent="aAWxjAW3lnpBoPfi4oE7-5" vertex="1">
          <mxGeometry x="100" y="165" width="60" height="50" as="geometry" />
        </mxCell>
        <mxCell id="aAWxjAW3lnpBoPfi4oE7-27" value="Edit Specific Note" style="ellipse;html=1;whiteSpace=wrap;" parent="aAWxjAW3lnpBoPfi4oE7-5" vertex="1">
          <mxGeometry x="230" y="50" width="80" height="65" as="geometry" />
        </mxCell>
        <mxCell id="aAWxjAW3lnpBoPfi4oE7-28" value="Delete Specific Note" style="ellipse;html=1;whiteSpace=wrap;" parent="aAWxjAW3lnpBoPfi4oE7-5" vertex="1">
          <mxGeometry x="230" y="140" width="80" height="65" as="geometry" />
        </mxCell>
      </root>
    </mxGraphModel>
  </diagram>
</mxfile>
